<svg width="200" height="60" viewBox="0 0 200 60" fill="none" xmlns="http://www.w3.org/2000/svg">
  <!-- Background circle -->
  <circle cx="30" cy="30" r="25" fill="#0A1A2F"/>
  
  <!-- Brain/lightbulb icon -->
  <path d="M25 20C25 17.2386 27.2386 15 30 15C32.7614 15 35 17.2386 35 20C35 21.5 34.5 22.8 33.7 23.8C33.2 24.4 32.8 25 32.5 25.5C32.2 26 32 26.5 32 27V30C32 31.1046 31.1046 32 30 32C28.8954 32 28 31.1046 28 30V27C28 26.5 27.8 26 27.5 25.5C27.2 25 26.8 24.4 26.3 23.8C25.5 22.8 25 21.5 25 20Z" fill="#3B82F6"/>
  
  <!-- Spark lines -->
  <path d="M15 25L20 30L18 32L13 27L15 25Z" fill="#1E3A8A"/>
  <path d="M45 25L40 30L42 32L47 27L45 25Z" fill="#1E3A8A"/>
  <path d="M30 10L32 15L30 17L28 12L30 10Z" fill="#1E3A8A"/>
  
  <!-- Text "SkillHub" -->
  <text x="70" y="25" font-family="Inter, sans-serif" font-size="18" font-weight="700" fill="#0A1A2F">Skill</text>
  <text x="70" y="45" font-family="Inter, sans-serif" font-size="18" font-weight="700" fill="#1E3A8A">Hub</text>
  
  <!-- Decorative dots -->
  <circle cx="160" cy="20" r="3" fill="#3B82F6"/>
  <circle cx="165" cy="25" r="2" fill="#1E3A8A"/>
  <circle cx="170" cy="30" r="2.5" fill="#3B82F6"/>
</svg>
